<mxfile host="65bd71144e">
    <diagram id="xT-nPOJqMfoYWxuyH0EP" name="Page-1">
        <mxGraphModel dx="1702" dy="702" grid="1" gridSize="10" guides="1" tooltips="1" connect="1" arrows="1" fold="1" page="1" pageScale="1" pageWidth="827" pageHeight="1169" math="1" shadow="0">
            <root>
                <mxCell id="0"/>
                <mxCell id="1" parent="0"/>
                <mxCell id="5" value="" style="rounded=0;whiteSpace=wrap;html=1;strokeColor=none;fillColor=#d5e8d4;" parent="1" vertex="1">
                    <mxGeometry x="120" y="200" width="1100" height="120" as="geometry"/>
                </mxCell>
                <mxCell id="9" value="" style="rounded=0;whiteSpace=wrap;html=1;strokeColor=none;fillColor=#d5e8d4;" parent="1" vertex="1">
                    <mxGeometry x="120" y="360" width="1100" height="120" as="geometry"/>
                </mxCell>
                <mxCell id="10" value="Kernel 1" style="text;html=1;align=center;verticalAlign=middle;whiteSpace=wrap;rounded=0;fontFamily=Times New Roman;fontStyle=2;fontSize=33;fontColor=#000000;" parent="1" vertex="1">
                    <mxGeometry x="140" y="245" width="190" height="30" as="geometry"/>
                </mxCell>
                <mxCell id="13" value="Kernel 2" style="text;html=1;align=center;verticalAlign=middle;whiteSpace=wrap;rounded=0;fontFamily=Times New Roman;fontStyle=2;fontSize=33;fontColor=#000000;" parent="1" vertex="1">
                    <mxGeometry x="140" y="405" width="190" height="30" as="geometry"/>
                </mxCell>
                <mxCell id="14" value="$$K_0$$" style="rounded=0;whiteSpace=wrap;html=1;fontFamily=Times New Roman;fontSize=33;fontColor=#ffffff;fillColor=#60a917;strokeColor=#2D7600;fontStyle=2" parent="1" vertex="1">
                    <mxGeometry x="370" y="370" width="110" height="100" as="geometry"/>
                </mxCell>
                <mxCell id="15" value="$$K_1$$" style="rounded=0;whiteSpace=wrap;html=1;fontFamily=Times New Roman;fontSize=33;fontColor=#ffffff;fillColor=#60a917;strokeColor=#2D7600;fontStyle=2" parent="1" vertex="1">
                    <mxGeometry x="490" y="370" width="110" height="100" as="geometry"/>
                </mxCell>
                <mxCell id="16" value="$$K_2$$" style="rounded=0;whiteSpace=wrap;html=1;fontFamily=Times New Roman;fontSize=33;fontColor=#ffffff;fillColor=#60a917;strokeColor=#2D7600;fontStyle=2" parent="1" vertex="1">
                    <mxGeometry x="610" y="370" width="110" height="100" as="geometry"/>
                </mxCell>
                <mxCell id="17" value="$$K_3$$" style="rounded=0;whiteSpace=wrap;html=1;fontFamily=Times New Roman;fontSize=33;fontColor=#ffffff;fillColor=#60a917;strokeColor=#2D7600;fontStyle=2" parent="1" vertex="1">
                    <mxGeometry x="730" y="370" width="110" height="100" as="geometry"/>
                </mxCell>
                <mxCell id="18" value="$$K_4$$" style="rounded=0;whiteSpace=wrap;html=1;fontFamily=Times New Roman;fontSize=33;fontColor=#ffffff;fillColor=#60a917;strokeColor=#2D7600;fontStyle=2" parent="1" vertex="1">
                    <mxGeometry x="850" y="370" width="110" height="100" as="geometry"/>
                </mxCell>
                <mxCell id="19" value="$$K_5$$" style="rounded=0;whiteSpace=wrap;html=1;fontFamily=Times New Roman;fontSize=33;fillColor=#bac8d3;strokeColor=#23445d;fontStyle=2" parent="1" vertex="1">
                    <mxGeometry x="970" y="370" width="110" height="100" as="geometry"/>
                </mxCell>
                <mxCell id="20" value="$$SubK_6$$" style="rounded=0;whiteSpace=wrap;html=1;fontFamily=Times New Roman;fontSize=33;fillColor=#bac8d3;strokeColor=#000000;fontStyle=2;fontColor=#000000;" parent="1" vertex="1">
                    <mxGeometry x="1090" y="370" width="110" height="100" as="geometry"/>
                </mxCell>
                <mxCell id="22" value="" style="rounded=0;whiteSpace=wrap;html=1;fontFamily=Times New Roman;fontSize=33;fillColor=#bac8d3;strokeColor=none;fontStyle=2" parent="1" vertex="1">
                    <mxGeometry x="1210" y="370" width="10" height="100" as="geometry"/>
                </mxCell>
                <mxCell id="25" value="" style="rounded=0;whiteSpace=wrap;html=1;fontFamily=Times New Roman;fontSize=33;fillColor=#bac8d3;strokeColor=none;fontStyle=2" parent="1" vertex="1">
                    <mxGeometry x="930" y="210" width="290" height="100" as="geometry"/>
                </mxCell>
                <mxCell id="26" value="$$K_0$$" style="rounded=0;whiteSpace=wrap;html=1;fontFamily=Times New Roman;fontSize=33;fontColor=#ffffff;fillColor=#60a917;strokeColor=#2D7600;fontStyle=2" parent="1" vertex="1">
                    <mxGeometry x="370" y="370" width="110" height="100" as="geometry"/>
                </mxCell>
                <mxCell id="27" value="$$K_1$$" style="rounded=0;whiteSpace=wrap;html=1;fontFamily=Times New Roman;fontSize=33;fontColor=#ffffff;fillColor=#60a917;strokeColor=#2D7600;fontStyle=2" parent="1" vertex="1">
                    <mxGeometry x="490" y="370" width="110" height="100" as="geometry"/>
                </mxCell>
                <mxCell id="28" value="$$K_0$$" style="rounded=0;whiteSpace=wrap;html=1;fontFamily=Times New Roman;fontSize=33;fontColor=#ffffff;fillColor=#60a917;strokeColor=#2D7600;fontStyle=2" parent="1" vertex="1">
                    <mxGeometry x="370" y="370" width="110" height="100" as="geometry"/>
                </mxCell>
                <mxCell id="29" value="$$K_1$$" style="rounded=0;whiteSpace=wrap;html=1;fontFamily=Times New Roman;fontSize=33;fontColor=#ffffff;fillColor=#60a917;strokeColor=#2D7600;fontStyle=2" parent="1" vertex="1">
                    <mxGeometry x="490" y="370" width="110" height="100" as="geometry"/>
                </mxCell>
                <mxCell id="30" value="$$K_2$$" style="rounded=0;whiteSpace=wrap;html=1;fontFamily=Times New Roman;fontSize=33;fontColor=#ffffff;fillColor=#60a917;strokeColor=#2D7600;fontStyle=2" parent="1" vertex="1">
                    <mxGeometry x="610" y="370" width="110" height="100" as="geometry"/>
                </mxCell>
                <mxCell id="31" value="$$K_3$$" style="rounded=0;whiteSpace=wrap;html=1;fontFamily=Times New Roman;fontSize=33;fontColor=#ffffff;fillColor=#60a917;strokeColor=#2D7600;fontStyle=2" parent="1" vertex="1">
                    <mxGeometry x="730" y="370" width="110" height="100" as="geometry"/>
                </mxCell>
                <mxCell id="32" value="$$SubK_0$$" style="rounded=0;whiteSpace=wrap;html=1;fontFamily=Times New Roman;fontSize=33;fontColor=#000000;fillColor=#60a917;strokeColor=#000000;fontStyle=2" parent="1" vertex="1">
                    <mxGeometry x="370" y="370" width="110" height="100" as="geometry"/>
                </mxCell>
                <mxCell id="33" value="$$SubK_1$$" style="rounded=0;whiteSpace=wrap;html=1;fontFamily=Times New Roman;fontSize=33;fontColor=#000000;fillColor=#60a917;strokeColor=#000000;fontStyle=2" parent="1" vertex="1">
                    <mxGeometry x="490" y="370" width="110" height="100" as="geometry"/>
                </mxCell>
                <mxCell id="34" value="$$SubK_2$$" style="rounded=0;whiteSpace=wrap;html=1;fontFamily=Times New Roman;fontSize=33;fontColor=#000000;fillColor=#60a917;strokeColor=#000000;fontStyle=2" parent="1" vertex="1">
                    <mxGeometry x="610" y="370" width="110" height="100" as="geometry"/>
                </mxCell>
                <mxCell id="35" value="$$SubK_3$$" style="rounded=0;whiteSpace=wrap;html=1;fontFamily=Times New Roman;fontSize=33;fontColor=#000000;fillColor=#60a917;strokeColor=#000000;fontStyle=2" parent="1" vertex="1">
                    <mxGeometry x="730" y="370" width="110" height="100" as="geometry"/>
                </mxCell>
                <mxCell id="36" value="$$SubK_4$$" style="rounded=0;whiteSpace=wrap;html=1;fontFamily=Times New Roman;fontSize=33;fontColor=#000000;fillColor=#60a917;strokeColor=#000000;fontStyle=2" parent="1" vertex="1">
                    <mxGeometry x="850" y="370" width="110" height="100" as="geometry"/>
                </mxCell>
                <mxCell id="37" value="$$SubK_5$$" style="rounded=0;whiteSpace=wrap;html=1;fontFamily=Times New Roman;fontSize=33;fillColor=#bac8d3;strokeColor=#000000;fontStyle=2;fontColor=#000000;" parent="1" vertex="1">
                    <mxGeometry x="970" y="370" width="110" height="100" as="geometry"/>
                </mxCell>
                <mxCell id="38" value="$$SubK_0$$" style="rounded=0;whiteSpace=wrap;html=1;fontFamily=Times New Roman;fontSize=33;fontColor=#000000;fillColor=#1ba1e2;strokeColor=#000000;fontStyle=2" parent="1" vertex="1">
                    <mxGeometry x="370" y="210" width="550" height="100" as="geometry"/>
                </mxCell>
                <mxCell id="47" value="" style="endArrow=none;html=1;jumpStyle=none;bendable=1;rounded=0;exitX=1;exitY=1;exitDx=0;exitDy=0;" edge="1" parent="1" source="25">
                    <mxGeometry width="50" height="50" relative="1" as="geometry">
                        <mxPoint x="1170" y="260" as="sourcePoint"/>
                        <mxPoint x="1220" y="210" as="targetPoint"/>
                        <Array as="points">
                            <mxPoint x="930" y="310"/>
                            <mxPoint x="930" y="210"/>
                        </Array>
                    </mxGeometry>
                </mxCell>
                <mxCell id="48" value="" style="endArrow=none;html=1;jumpStyle=none;bendable=1;rounded=0;exitX=1;exitY=1;exitDx=0;exitDy=0;" edge="1" parent="1">
                    <mxGeometry width="50" height="50" relative="1" as="geometry">
                        <mxPoint x="1220" y="470" as="sourcePoint"/>
                        <mxPoint x="1220" y="370" as="targetPoint"/>
                        <Array as="points">
                            <mxPoint x="1210" y="470"/>
                            <mxPoint x="1210" y="370"/>
                        </Array>
                    </mxGeometry>
                </mxCell>
                <mxCell id="2" value="" style="endArrow=none;dashed=1;html=1;strokeWidth=2;exitX=1;exitY=1;exitDx=0;exitDy=0;rounded=0;" parent="1" edge="1" source="5">
                    <mxGeometry width="50" height="50" relative="1" as="geometry">
                        <mxPoint x="1240" y="320" as="sourcePoint"/>
                        <mxPoint x="1220" y="200" as="targetPoint"/>
                        <Array as="points">
                            <mxPoint x="120" y="320"/>
                            <mxPoint x="120" y="200"/>
                        </Array>
                    </mxGeometry>
                </mxCell>
                <mxCell id="50" value="" style="endArrow=none;dashed=1;html=1;strokeWidth=2;exitX=1;exitY=1;exitDx=0;exitDy=0;rounded=0;" edge="1" parent="1">
                    <mxGeometry width="50" height="50" relative="1" as="geometry">
                        <mxPoint x="1219.999999999999" y="480.0000000000001" as="sourcePoint"/>
                        <mxPoint x="1220" y="360" as="targetPoint"/>
                        <Array as="points">
                            <mxPoint x="120" y="480"/>
                            <mxPoint x="120" y="360"/>
                        </Array>
                    </mxGeometry>
                </mxCell>
            </root>
        </mxGraphModel>
    </diagram>
</mxfile>